/* XPM */
static char *Dense2Pattern_xpm[] = {
/* columns rows colors chars-per-pixel */
"100 20 3 1",
"  c black",
". c gray100",
"X c None",
/* pixels */
"XXXXXXXXXXXXXXXXXXXXXXXXXXXXXXXXXXXXXXXXXXXXXXXXXXXXXXXXXXXXXXXXXXXXXXXXXXXXXXXXXXXXXXXXXXXXXXXXXXXX",
"XXXXXXXXXXXXXXXXXXXXXXXXXXXXXXXXXXXXXXXXXXXXXXXXXXXXXXXXXXXXXXXXXXXXXXXXXXXXXXXXXXXXXXXXXXXXXXXXXXXX",
"XXXXXX   X   X   X   X   X   X   X   X   X   X   X   X   X   X   X   X   X   X   X   X   X   X XXXXX",
"XXXXX                                                                                          XXXXX",
"XXXXX  X   X   X   X   X   X   X   X   X   X   X   X   X   X   X   X   X   X   X   X   X   X   XXXXX",
"XXXXX                                                                                          XXXXX",
"XXXXXX   X   X   X   X   X   X   X   X   X   X   X   X   X   X   X   X   X   X   X   X   X   X XXXXX",
"XXXXX                                                                                          XXXXX",
"XXXXX  X   X   X   X   X   X   X   X   X   X   X   X   X   X   X   X   X   X   X   X   X   X   XXXXX",
"XXXXX                                                                                          XXXXX",
"XXXXXX   X   X   X   X   X   X   X   X   X   X   X   X   X   X   X   X   X   X   X   X   X   X XXXXX",
"XXXXX                                                                                          XXXXX",
"XXXXX  X   X   X   X   X   X   X   X   X   X   X   X   X   X   X   X   X   X   X   X   X   X   XXXXX",
"XXXXX                                                                                          XXXXX",
"XXXXXX   X   X   X   X   X   X   X   X   X   X   X   X   X   X   X   X   X   X   X   X   X   X XXXXX",
"XXXXX                                                                                          XXXXX",
"XXXXX  X   X   X   X   X   X   X   X   X   X   X   X   X   X   X   X   X   X   X   X   X   X   XXXXX",
"XXXXX                                                                                          XXXXX",
"XXXXXXXXXXXXXXXXXXXXXXXXXXXXXXXXXXXXXXXXXXXXXXXXXXXXXXXXXXXXXXXXXXXXXXXXXXXXXXXXXXXXXXXXXXXXXXXXXXXX",
"XXXXXXXXXXXXXXXXXXXXXXXXXXXXXXXXXXXXXXXXXXXXXXXXXXXXXXXXXXXXXXXXXXXXXXXXXXXXXXXXXXXXXXXXXXXXXXXXXXXX"
};
