/* XPM */
static char *Dense3Pattern_xpm[] = {
/* columns rows colors chars-per-pixel */
"100 20 3 1",
"  c black",
". c gray100",
"X c None",
/* pixels */
"XXXXXXXXXXXXXXXXXXXXXXXXXXXXXXXXXXXXXXXXXXXXXXXXXXXXXXXXXXXXXXXXXXXXXXXXXXXXXXXXXXXXXXXXXXXXXXXXXXXX",
"XXXXXXXXXXXXXXXXXXXXXXXXXXXXXXXXXXXXXXXXXXXXXXXXXXXXXXXXXXXXXXXXXXXXXXXXXXXXXXXXXXXXXXXXXXXXXXXXXXXX",
"XXXXXX X X X X X X X X X X X X X X X X X X X X X X X X X X X X X X X X X X X X X X X X X X X X XXXXX",
"XXXXX   X   X   X   X   X   X   X   X   X   X   X   X   X   X   X   X   X   X   X   X   X   X  XXXXX",
"XXXXXX X X X X X X X X X X X X X X X X X X X X X X X X X X X X X X X X X X X X X X X X X X X X XXXXX",
"XXXXX X   X   X   X   X   X   X   X   X   X   X   X   X   X   X   X   X   X   X   X   X   X   XXXXXX",
"XXXXXX X X X X X X X X X X X X X X X X X X X X X X X X X X X X X X X X X X X X X X X X X X X X XXXXX",
"XXXXX   X   X   X   X   X   X   X   X   X   X   X   X   X   X   X   X   X   X   X   X   X   X  XXXXX",
"XXXXXX X X X X X X X X X X X X X X X X X X X X X X X X X X X X X X X X X X X X X X X X X X X X XXXXX",
"XXXXX X   X   X   X   X   X   X   X   X   X   X   X   X   X   X   X   X   X   X   X   X   X   XXXXXX",
"XXXXXX X X X X X X X X X X X X X X X X X X X X X X X X X X X X X X X X X X X X X X X X X X X X XXXXX",
"XXXXX   X   X   X   X   X   X   X   X   X   X   X   X   X   X   X   X   X   X   X   X   X   X  XXXXX",
"XXXXXX X X X X X X X X X X X X X X X X X X X X X X X X X X X X X X X X X X X X X X X X X X X X XXXXX",
"XXXXX X   X   X   X   X   X   X   X   X   X   X   X   X   X   X   X   X   X   X   X   X   X   XXXXXX",
"XXXXXX X X X X X X X X X X X X X X X X X X X X X X X X X X X X X X X X X X X X X X X X X X X X XXXXX",
"XXXXX   X   X   X   X   X   X   X   X   X   X   X   X   X   X   X   X   X   X   X   X   X   X  XXXXX",
"XXXXXX X X X X X X X X X X X X X X X X X X X X X X X X X X X X X X X X X X X X X X X X X X X X XXXXX",
"XXXXX X   X   X   X   X   X   X   X   X   X   X   X   X   X   X   X   X   X   X   X   X   X   XXXXXX",
"XXXXXXXXXXXXXXXXXXXXXXXXXXXXXXXXXXXXXXXXXXXXXXXXXXXXXXXXXXXXXXXXXXXXXXXXXXXXXXXXXXXXXXXXXXXXXXXXXXXX",
"XXXXXXXXXXXXXXXXXXXXXXXXXXXXXXXXXXXXXXXXXXXXXXXXXXXXXXXXXXXXXXXXXXXXXXXXXXXXXXXXXXXXXXXXXXXXXXXXXXXX"
};
