/* XPM */
static char *DiagCrossPattern_xpm[] = {
/* columns rows colors chars-per-pixel */
"100 20 3 1",
"  c black",
". c gray100",
"X c None",
/* pixels */
"XXXXXXXXXXXXXXXXXXXXXXXXXXXXXXXXXXXXXXXXXXXXXXXXXXXXXXXXXXXXXXXXXXXXXXXXXXXXXXXXXXXXXXXXXXXXXXXXXXXX",
"XXXXXXXXXXXXXXXXXXXXXXXXXXXXXXXXXXXXXXXXXXXXXXXXXXXXXXXXXXXXXXXXXXXXXXXXXXXXXXXXXXXXXXXXXXXXXXXXXXXX",
"XXXXXXXXXXX XXXXXXX XXXXXXX XXXXXXX XXXXXXX XXXXXXX XXXXXXX XXXXXXX XXXXXXX XXXXXXX XXXXXXX XXXXXXXX",
"XXXXXXXXXX X XXXXX X XXXXX X XXXXX X XXXXX X XXXXX X XXXXX X XXXXX X XXXXX X XXXXX X XXXXX X XXXXXXX",
"XXXXX XXX XXX XXX XXX XXX XXX XXX XXX XXX XXX XXX XXX XXX XXX XXX XXX XXX XXX XXX XXX XXX XXX XXXXXX",
"XXXXXX X XXXXX X XXXXX X XXXXX X XXXXX X XXXXX X XXXXX X XXXXX X XXXXX X XXXXX X XXXXX X XXXXX XXXXX",
"XXXXXXX XXXXXXX XXXXXXX XXXXXXX XXXXXXX XXXXXXX XXXXXXX XXXXXXX XXXXXXX XXXXXXX XXXXXXX XXXXXXXXXXXX",
"XXXXXX X XXXXX X XXXXX X XXXXX X XXXXX X XXXXX X XXXXX X XXXXX X XXXXX X XXXXX X XXXXX X XXXXX XXXXX",
"XXXXX XXX XXX XXX XXX XXX XXX XXX XXX XXX XXX XXX XXX XXX XXX XXX XXX XXX XXX XXX XXX XXX XXX XXXXXX",
"XXXXXXXXXX X XXXXX X XXXXX X XXXXX X XXXXX X XXXXX X XXXXX X XXXXX X XXXXX X XXXXX X XXXXX X XXXXXXX",
"XXXXXXXXXXX XXXXXXX XXXXXXX XXXXXXX XXXXXXX XXXXXXX XXXXXXX XXXXXXX XXXXXXX XXXXXXX XXXXXXX XXXXXXXX",
"XXXXXXXXXX X XXXXX X XXXXX X XXXXX X XXXXX X XXXXX X XXXXX X XXXXX X XXXXX X XXXXX X XXXXX X XXXXXXX",
"XXXXX XXX XXX XXX XXX XXX XXX XXX XXX XXX XXX XXX XXX XXX XXX XXX XXX XXX XXX XXX XXX XXX XXX XXXXXX",
"XXXXXX X XXXXX X XXXXX X XXXXX X XXXXX X XXXXX X XXXXX X XXXXX X XXXXX X XXXXX X XXXXX X XXXXX XXXXX",
"XXXXXXX XXXXXXX XXXXXXX XXXXXXX XXXXXXX XXXXXXX XXXXXXX XXXXXXX XXXXXXX XXXXXXX XXXXXXX XXXXXXXXXXXX",
"XXXXXX X XXXXX X XXXXX X XXXXX X XXXXX X XXXXX X XXXXX X XXXXX X XXXXX X XXXXX X XXXXX X XXXXX XXXXX",
"XXXXX XXX XXX XXX XXX XXX XXX XXX XXX XXX XXX XXX XXX XXX XXX XXX XXX XXX XXX XXX XXX XXX XXX XXXXXX",
"XXXXXXXXXX X XXXXX X XXXXX X XXXXX X XXXXX X XXXXX X XXXXX X XXXXX X XXXXX X XXXXX X XXXXX X XXXXXXX",
"XXXXXXXXXXXXXXXXXXXXXXXXXXXXXXXXXXXXXXXXXXXXXXXXXXXXXXXXXXXXXXXXXXXXXXXXXXXXXXXXXXXXXXXXXXXXXXXXXXXX",
"XXXXXXXXXXXXXXXXXXXXXXXXXXXXXXXXXXXXXXXXXXXXXXXXXXXXXXXXXXXXXXXXXXXXXXXXXXXXXXXXXXXXXXXXXXXXXXXXXXXX"
};
