/* XPM */
static char *online[] = {
/* columns rows colors chars-per-pixel */
"24 24 3 1",
"  c black",
". c gray100",
"X c None",
/* pixels */
"XXXXXXXXXXXXXXXXXXXXXXXX",
"XXXXXXXXXXXXXXXXXXXXXXXX",
"XXXXXXX XXXXXXXXXXXXXXXX",
"XXXXXXX  XXXXXXXXXXXXXXX",
"XXXXXXX . XXXXXXXXXXXXXX",
"XXXXXXX .. XXXXXXXXXXXXX",
"XXXXXXX ... XXXXXXXXXXXX",
"XXXXXXX .... XXXXXXXXXXX",
"XXXXXXX ..... XXXXXXXXXX",
"XXXXXXX ...... XXXXXXXXX",
"XXXXXXX ....... XXXXXXXX",
"XXXXXXX ........ XXXXXXX",
"XXXXXXX ......... XXXXXX",
"XXXXXXX ........ XXXXXXX",
"XXXXXXX ....... XXXXXXXX",
"XXXXXXX ...... XXXXXXXXX",
"XXXXXXX ..... XXXXXXXXXX",
"XXXXXXX .... XXXXXXXXXXX",
"XXXXXXX ... XXXXXXXXXXXX",
"XXXXXXX .. XXXXXXXXXXXXX",
"XXXXXXX . XXXXXXXXXXXXXX",
"XXXXXXX  XXXXXXXXXXXXXXX",
"XXXXXXX XXXXXXXXXXXXXXXX",
"XXXXXXXXXXXXXXXXXXXXXXXX"
};
