/* XPM */
static char *SolidPattern_xpm[] = {
/* columns rows colors chars-per-pixel */
"100 20 3 1",
"  c black",
". c gray100",
"X c None",
/* pixels */
"XXXXXXXXXXXXXXXXXXXXXXXXXXXXXXXXXXXXXXXXXXXXXXXXXXXXXXXXXXXXXXXXXXXXXXXXXXXXXXXXXXXXXXXXXXXXXXXXXXXX",
"XXXXXXXXXXXXXXXXXXXXXXXXXXXXXXXXXXXXXXXXXXXXXXXXXXXXXXXXXXXXXXXXXXXXXXXXXXXXXXXXXXXXXXXXXXXXXXXXXXXX",
"XXXXX                                                                                          XXXXX",
"XXXXX                                                                                          XXXXX",
"XXXXX                                                                                          XXXXX",
"XXXXX                                                                                          XXXXX",
"XXXXX                                                                                          XXXXX",
"XXXXX                                                                                          XXXXX",
"XXXXX                                                                                          XXXXX",
"XXXXX                                                                                          XXXXX",
"XXXXX                                                                                          XXXXX",
"XXXXX                                                                                          XXXXX",
"XXXXX                                                                                          XXXXX",
"XXXXX                                                                                          XXXXX",
"XXXXX                                                                                          XXXXX",
"XXXXX                                                                                          XXXXX",
"XXXXX                                                                                          XXXXX",
"XXXXX                                                                                          XXXXX",
"XXXXXXXXXXXXXXXXXXXXXXXXXXXXXXXXXXXXXXXXXXXXXXXXXXXXXXXXXXXXXXXXXXXXXXXXXXXXXXXXXXXXXXXXXXXXXXXXXXXX",
"XXXXXXXXXXXXXXXXXXXXXXXXXXXXXXXXXXXXXXXXXXXXXXXXXXXXXXXXXXXXXXXXXXXXXXXXXXXXXXXXXXXXXXXXXXXXXXXXXXXX"
};
