/* XPM */
static char * QWTAnalogClock_xpm[] = {
"32 32 8 1",
" 	c None",
".	c #969696",
"+	c #707070",
"@	c #000000",
"#	c #EFEFEF",
"$	c #FFFFFF",
"%	c #10109E",
"&	c #E80042",
".++++++++++++++++++++++++++++++.",
"+@@@@@@@@@@@@@@@@@@@@@@@@@@@@@@+",
"+@++++++++++++++++++++++++++++@+",
"+@+##########################+@+",
"+@+#$$$$$$$$$$$$$$$$$$$$$$$$#+@+",
"+@+#$$$$$$$$$$$$$$$$$$$$$$$$#+@+",
"+@+#$$$$$$$$$$$@@$$$$$$$$$$$#+@+",
"+@+#$$$$$$$$$@@%%@@$$$$$$$$$#+@+",
"+@+#$$$$$$$@@@$%%$@@@$$$$$$$#+@+",
"+@+#$$$$$$@@$$$%%$$$@@$$$$$$#+@+",
"+@+#$$$$$@@$$$$%%$$$$@@$$$$$#+@+",
"+@+#$$$$@@$$$$$%%$$$$$@@$$$$#+@+",
"+@+#$$$$@$$$$$$%%$$$$$$@$$$$#+@+",
"+@+#$$$@@$$$$$$%%$$$$$$@@$$$#+@+",
"+@+#$$$@$$$$$$$%%$$$$$$$@$$$#+@+",
"+@+#$$@@@$$$$$$%%$$$$$$@@@$$#+@+",
"+@+#$$@@@$$$$$$%%%$$$$$@@@$$#+@+",
"+@+#$$$@$$$$$$$&%%%$$$$$@$$$#+@+",
"+@+#$$$@@$$$$$$&$%%%$$$@@$$$#+@+",
"+@+#$$$$@$$$$$&$$$%%%$$@$$$$#+@+",
"+@+#$$$$@@$$$$&$$$$%$$@@$$$$#+@+",
"+@+#$$$$$@@$$&$$$$$$$@@$$$$$#+@+",
"+@+#$$$$$$@@$$$$$$$$@@$$$$$$#+@+",
"+@+#$$$$$$$@@@$@@$@@@$$$$$$$#+@+",
"+@+#$$$$$$$$$@@@@@@$$$$$$$$$#+@+",
"+@+#$$$$$$$$$$$@@$$$$$$$$$$$#+@+",
"+@+#$$$$$$$$$$$$$$$$$$$$$$$$#+@+",
"+@+#$$$$$$$$$$$$$$$$$$$$$$$$#+@+",
"+@+##########################+@+",
"+@++++++++++++++++++++++++++++@+",
"+@@@@@@@@@@@@@@@@@@@@@@@@@@@@@@+",
".++++++++++++++++++++++++++++++."};
