/* XPM */
static char * QWTActiveText_xpm[] = {
"32 32 68 1",
" 	c None",
".	c #969696",
"+	c #707070",
"@	c #000000",
"#	c #EFEFEF",
"$	c #FFFFFF",
"%	c #FEFEFE",
"&	c #F2E6E6",
"*	c #FAF6F6",
"=	c #C89999",
"-	c #9D4949",
";	c #C79696",
">	c #A65A5A",
",	c #9B4444",
"'	c #EFE1E1",
")	c #AEAEAE",
"!	c #6F6F6F",
"~	c #DCDCDC",
"{	c #858585",
"]	c #6C6C6C",
"^	c #868686",
"/	c #DEDEDE",
"(	c #9D4848",
"_	c #E8D4D4",
":	c #D5B2B2",
"<	c #DEC2C2",
"[	c #6E6E6E",
"}	c #DDDDDD",
"|	c #FDFDFD",
"1	c #777777",
"2	c #B1B1B1",
"3	c #E6E6E6",
"4	c #ADADAD",
"5	c #7E7E7E",
"6	c #C79797",
"7	c #C18B8B",
"8	c #CDA1A1",
"9	c #AA6060",
"0	c #A3A3A3",
"a	c #B5B5B5",
"b	c #818181",
"c	c #D1D1D1",
"d	c #FCFCFC",
"e	c #CBCBCB",
"f	c #747474",
"g	c #F3E9E9",
"h	c #C69696",
"i	c #A35454",
"j	c #EEEEEE",
"k	c #ACACAC",
"l	c #CCA1A1",
"m	c #B4B4B4",
"n	c #737373",
"o	c #D4D4D4",
"p	c #EEE0E0",
"q	c #F5EDED",
"r	c #F0E4E4",
"s	c #E3CACA",
"t	c #F2F2F2",
"u	c #8D8D8D",
"v	c #9C9C9C",
"w	c #AB6262",
"x	c #A85C5C",
"y	c #9E4949",
"z	c #F9F4F4",
"A	c #828282",
"B	c #D7D7D7",
"C	c #6B6B6B",
".++++++++++++++++++++++++++++++.",
"+@@@@@@@@@@@@@@@@@@@@@@@@@@@@@@+",
"+@++++++++++++++++++++++++++++@+",
"+@+##########################+@+",
"+@+#$$$$$$$$$$$$$$$$$$$$$$$$#+@+",
"+@+#$$$$$$$$$$$$$$$$$$$$$$$$#+@+",
"+@+#$$$$$$$$$$$$$$$$$$$$$$$$#+@+",
"+@+#$$$$$$$$$$$$$$$$$$$$$$$$#+@+",
"+@+#$$$$$$$$$$$$$$$$$$$$$$$$#+@+",
"+@+#$$$$$$$$$$$$$$$$$$$$$$$$#+@+",
"+@+#$$$$$$$$$$$$$$$$$$$$$$$$#+@+",
"+@+#$$$$$$$$$$$$$$$$$$$$$$$$#+@+",
"+@+#$$$$$$$$%&*$$$$$$$$$$$$$#+@+",
"+@+#=-=$$$$;>,'$)!)$$$$~{]^/#+@+",
"+@+#(_-$$$$:<,'$[}!$$$|12345#+@+",
"+@+#6(789$$$$,'$4[0ab$%cd$ef#+@+",
"+@+#ghihg$$$$,'$jk1kj$$$$e+e#+@+",
"+@+#9l7-=$$$$,'$bm0!)$$d4no$#+@+",
"+@+#$$(p-$$qr,sg$$[3!$tu1o3v#+@+",
"+@+#$$6w=$$x,,,yz$4A)$BCCCCC#+@+",
"+@+#$$$$$$$$$$$$$$$$$$$$$$$$#+@+",
"+@+#$$$$$$$$$$$$$$$$$$$$$$$$#+@+",
"+@+#$$$$$$$$$$$$$$$$$$$$$$$$#+@+",
"+@+#$$$$$$$$$$$$$$$$$$$$$$$$#+@+",
"+@+#$$$$$$$$$$$$$$$$$$$$$$$$#+@+",
"+@+#$$$$$$$$$$$$$$$$$$$$$$$$#+@+",
"+@+#$$$$$$$$$$$$$$$$$$$$$$$$#+@+",
"+@+#$$$$$$$$$$$$$$$$$$$$$$$$#+@+",
"+@+##########################+@+",
"+@++++++++++++++++++++++++++++@+",
"+@@@@@@@@@@@@@@@@@@@@@@@@@@@@@@+",
".++++++++++++++++++++++++++++++."};
