/* XPM */
static char * QWTButton_xpm[] = {
"32 32 226 2",
"  	c None",
". 	c #000000",
"+ 	c #C1C1C1",
"@ 	c #D1D1D1",
"# 	c #6E6E6E",
"$ 	c #C4C4C4",
"% 	c #C5C5C5",
"& 	c #A5A5A5",
"* 	c #5C5C5C",
"= 	c #BFBFBF",
"- 	c #B5B5B5",
"; 	c #B6B6B6",
"> 	c #B9B9B9",
", 	c #4E4E4E",
"' 	c #3A3A3A",
") 	c #787878",
"! 	c #7A7A7A",
"~ 	c #7C7C7C",
"{ 	c #4B4B4B",
"] 	c #404040",
"^ 	c #7E7E7E",
"/ 	c #4C4C4C",
"( 	c #111111",
"_ 	c #7B7B7B",
": 	c #4B4A46",
"< 	c #3E3D38",
"[ 	c #626262",
"} 	c #797979",
"| 	c #191919",
"1 	c #8B8985",
"2 	c #D6D6D6",
"3 	c #161616",
"4 	c #8C8A86",
"5 	c #DAD9D8",
"6 	c #8A8580",
"7 	c #D3CECB",
"8 	c #696969",
"9 	c #868079",
"0 	c #D7CFC9",
"a 	c #0F0F0E",
"b 	c #717171",
"c 	c #747474",
"d 	c #847D74",
"e 	c #E9DFD6",
"f 	c #4F4D4A",
"g 	c #050504",
"h 	c #333334",
"i 	c #555555",
"j 	c #878787",
"k 	c #666666",
"l 	c #2E2B2A",
"m 	c #AFA7A0",
"n 	c #E6DDD2",
"o 	c #6B6560",
"p 	c #BDBBBA",
"q 	c #646464",
"r 	c #2B2B2B",
"s 	c #C7C6C5",
"t 	c #494847",
"u 	c #141414",
"v 	c #2F2F2F",
"w 	c #3C3C3C",
"x 	c #494949",
"y 	c #737373",
"z 	c #787473",
"A 	c #C5BDB6",
"B 	c #E9DFD3",
"C 	c #8E837B",
"D 	c #FFFEFD",
"E 	c #9B9998",
"F 	c #55514F",
"G 	c #FFFFFF",
"H 	c #6C6762",
"I 	c #3E3B38",
"J 	c #484949",
"K 	c #3D3D3D",
"L 	c #727272",
"M 	c #303030",
"N 	c #B0ADA9",
"O 	c #C9C2B8",
"P 	c #EADFD1",
"Q 	c #9C9287",
"R 	c #F1EDEA",
"S 	c #BFB9B6",
"T 	c #958D89",
"U 	c #FCFAF8",
"V 	c #938B85",
"W 	c #938E89",
"X 	c #858585",
"Y 	c #010000",
"Z 	c #313030",
"` 	c #E8E5E2",
" .	c #A6A39F",
"..	c #C9BFB4",
"+.	c #E3D7C7",
"@.	c #84817A",
"#.	c #E8E1D8",
"$.	c #C7C1B9",
"%.	c #9F9B95",
"&.	c #F1EDE7",
"*.	c #94928D",
"=.	c #82817F",
"-.	c #6B6A6A",
";.	c #070000",
">.	c #302F2F",
",.	c #E4E1DE",
"'.	c #AEAAA4",
").	c #CABEB1",
"!.	c #ECDDCC",
"~.	c #B8B1A7",
"{.	c #D5CCC1",
"].	c #D7CFC5",
"^.	c #D2CCC4",
"/.	c #E0DAD1",
"(.	c #D2C8BE",
"_.	c #B4ACA4",
":.	c #6E6965",
"<.	c #2F2D2D",
"[.	c #DFDBD8",
"}.	c #CEC4BA",
"|.	c #D5C6B7",
"1.	c #E4D5C4",
"2.	c #D9CDBF",
"3.	c #D5C9BA",
"4.	c #E1D4C6",
"5.	c #E4D8CB",
"6.	c #D1C6B9",
"7.	c #E7DACE",
"8.	c #C1B6AB",
"9.	c #675F59",
"0.	c #808080",
"a.	c #2F2B2A",
"b.	c #D8D4D1",
"c.	c #D5C9BE",
"d.	c #CFC0B1",
"e.	c #D5C6B6",
"f.	c #DACCBC",
"g.	c #D4C5B5",
"h.	c #D8C8B8",
"i.	c #D8C8B7",
"j.	c #C6B8A9",
"k.	c #D0C4B7",
"l.	c #ACA398",
"m.	c #5D554E",
"n.	c #636363",
"o.	c #7D7D7D",
"p.	c #3B3B3B",
"q.	c #2D2827",
"r.	c #C0BDBA",
"s.	c #97938F",
"t.	c #A49B91",
"u.	c #C5B8AA",
"v.	c #BFB4A6",
"w.	c #B9AD9F",
"x.	c #B8AB9D",
"y.	c #BCAFA0",
"z.	c #BEB0A2",
"A.	c #9F9488",
"B.	c #867D73",
"C.	c #574F49",
"D.	c #323232",
"E.	c #2D2C2A",
"F.	c #2B2823",
"G.	c #5A5752",
"H.	c #7C7670",
"I.	c #91897F",
"J.	c #A0978A",
"K.	c #9A8F84",
"L.	c #A09589",
"M.	c #A4988C",
"N.	c #867C72",
"O.	c #413C38",
"P.	c #141312",
"Q.	c #656464",
"R.	c #383838",
"S.	c #1D1D1D",
"T.	c #221F1B",
"U.	c #4A4541",
"V.	c #706A66",
"W.	c #7E7770",
"X.	c #7B736A",
"Y.	c #7F766C",
"Z.	c #827970",
"`.	c #7B726D",
" +	c #7A746F",
".+	c #312D2B",
"++	c #090909",
"@+	c #343434",
"#+	c #26221E",
"$+	c #443E3D",
"%+	c #484240",
"&+	c #48403B",
"*+	c #4D443E",
"=+	c #4B433E",
"-+	c #3D3838",
";+	c #34302E",
">+	c #333232",
",+	c #403E3E",
"'+	c #060101",
")+	c #0C0303",
"!+	c #090101",
"~+	c #080000",
"{+	c #070100",
"]+	c #030000",
"^+	c #080500",
"/+	c #43423E",
"(+	c #C0C0C0",
"_+	c #C9C9C9",
":+	c #484848",
"<+	c #0F0F0F",
"[+	c #121212",
"}+	c #686362",
"|+	c #C3BCBA",
"1+	c #B1AAA8",
"2+	c #ACA5A4",
"3+	c #AEA8A6",
"4+	c #B3AEAB",
"5+	c #B8B5B3",
"6+	c #D0CECC",
"7+	c #6F6F6B",
"8+	c #444444",
"9+	c #424242",
"0+	c #C6C6C6",
"a+	c #A7A7A7",
"b+	c #5E5E5E",
"c+	c #3E3E3E",
". . . . . . . . . . . . . . . . . . . . . . . . . . . . . . . . ",
".                                                             . ",
".   + + + + + + + + + + + + + + + + + + + + + + + + + + @ #   . ",
".   + + + $ $ $ $ $ $ $ $ $ $ $ $ $ $ $ $ $ $ $ $ $ $ % & *   . ",
".   + + = - ; ; ; ; ; ; ; ; ; ; ; ; ; ; ; ; ; ; ; ; ; > , '   . ",
".   + $ - ) ! ! ! ! ! ! ! ! ! ! ! ! ! ! ! ! ! ! ! ! ! ~ { ]   . ",
".   + $ ; ! ~ ~ ~ ~ ~ ~ ~ ~ ~ ~ ~ ~ ~ ~ ~ ~ ~ ~ ~ ~ ~ ^ / ]   . ",
".   + $ ; ! ~ ~ ~ ~ ~ ~ ~ ~ ~ ~ ~ ~ ~ ~ ~ ~ ~ ~ ~ ~ ~ ^ / ]   . ",
".   + $ ; ! ~ ~ ~ ~ ~ ~ ~ ~ ~ ~ ~ ~ ~ ~ ~ ~ ~ ~ ~ ~ ~ ^ / ]   . ",
".   + $ ; ! ~ ~ ~ ~ ~ ~ ~ ~ ~ ~ ' ( ~ ~ _ ~ ~ ~ ~ ~ ~ ^ / ]   . ",
".   + $ ; ! ~ ~ ~ ~ ~ ~ ~ ~ ~ # : < [ } ~ ~ ~ ~ ~ ~ ~ ^ / ]   . ",
".   + $ ; ! ~ ~ ~ ~ ~ ~ ~ ~ ~ | 1 2 . [ ~ ~ ~ ~ ~ ~ ~ ^ / ]   . ",
".   + $ ; ! ~ ~ ~ ~ ~ ~ ~ ~ ~ 3 4 5 . [ ~ ~ ~ ~ ~ ~ ~ ^ / ]   . ",
".   + $ ; ! ~ ~ ~ ~ ~ ~ ~ ~ ~ | 6 7 . 8 ~ ~ ~ ~ _ ~ ~ ^ / ]   . ",
".   + $ ; ! ~ ~ ~ ~ ~ ~ ~ ~ ~ | 9 0 a , b c [ } ~ ~ ~ ^ / ]   . ",
".   + $ ; ! ~ ~ ~ ~ ~ ~ ~ ~ ~ | d e f g h i . [ ~ ~ ~ ^ / ]   . ",
".   + $ ; ! ~ ~ ~ ~ ~ ~ j k | l m n o p q r s t u v ~ ^ / ]   . ",
".   + $ ; ! ~ ~ ~ ~ ~ ~ w x y z A B C D E F G H I J K L / ]   . ",
".   + $ ; ! ~ ~ ~ ~ ~ ~ . M G N O P Q R S T U V W X Y [ / ]   . ",
".   + $ ; ! ~ ~ ~ ~ ~ ~ . Z `  ...+.@.#.$.%.&.*.=.-.;.q / ]   . ",
".   + $ ; ! ~ ~ ~ ~ ~ ~ . >.,.'.).!.~.{.].^./.(._.:.;.q / ]   . ",
".   + $ ; ! ~ ~ ~ ~ ~ ~ . <.[.}.|.1.2.3.4.5.6.7.8.9.;.q / ]   . ",
".   + $ ; ! ~ 0.0.0.0.0.. a.b.c.d.e.f.g.h.i.j.k.l.m.;.n./ ]   . ",
".   + $ ; ! o.p.p.p.p.p.. q.r.s.t.u.v.w.x.y.z.A.B.C.;.q / ]   . ",
".   + $ ; ! ^ p.p.p.p.p.D.E.F.G.H.I.J.K.K.L.M.N.O.P.Q._ / ]   . ",
".   + $ ; ! o.p.p.p.p.p.p.R.S.T.U.V.W.X.Y.Z.`. +.+++^ ^ / ]   . ",
".   + $ ; ! ~ ^ ^ ^ ^ ^ ^ ^ ^ @+#+$+%+&+*+=+-+f ;+>+~ ^ / ]   . ",
".   + $ ; ~ ^ ^ ^ ^ ^ ^ ^ ^ ^ ^ ,+'+)+!+~+{+]+^+/+^ ^ 0./ ]   . ",
".   (+_+- :+{ / / / / / <+<+<+[+}+|+1+2+3+4+5+6+7+[+<+<+8+9+  . ",
".   0+a+b+c+] ] ] ] ] ] ] ] ] ] ] ] ] ] ] ] ] ] ] ] ] ] 9+9+  . ",
".                                                             . ",
". . . . . . . . . . . . . . . . . . . . . . . . . . . . . . . . "};
