/* XPM */
static char * QWTDial_xpm[] = {
"32 32 7 1",
" 	c None",
".	c #969696",
"+	c #707070",
"@	c #000000",
"#	c #EFEFEF",
"$	c #FFFFFF",
"%	c #10109E",
".++++++++++++++++++++++++++++++.",
"+@@@@@@@@@@@@@@@@@@@@@@@@@@@@@@+",
"+@++++++++++++++++++++++++++++@+",
"+@+##########################+@+",
"+@+#$$$$$$$$$$$$$$$$$$$$$$$$#+@+",
"+@+#$$$$$$$$$$$$$$$$$$$$$$$$#+@+",
"+@+#$$$$$$$$$$$@$$$$$$$$$$$$#+@+",
"+@+#$$$$$$%$$$$@$$$$$@$$$$$$#+@+",
"+@+#$$$$$$$%$@@@@@@$@$$$$$$$#+@+",
"+@+#$$$@$$$%%@$$$$@@@$$$@$$$#+@+",
"+@+#$$$$@$@@%$$$$$$$@@$@$$$$#+@+",
"+@+#$$$$$@@$%%$$$$$$$@@$$$$$#+@+",
"+@+#$$$$$@$$$%%$$$$$$$@$$$$$#+@+",
"+@+#$$$$@@$$$%%%$$$$$$@@$$$$#+@+",
"+@+#$$@@@$$$$$%%$$$$$$$@@@$$#+@+",
"+@+#$$$$@$$$$$%%%$$$$$$@$$$$#+@+",
"+@+#$$$$@$$$$$$%%$$$$$$@$$$$#+@+",
"+@+#$$$$@@$$$$$$%%$$$$@@$$$$#+@+",
"+@+#$$@@$@$$$$$$%$$$$$@$@@$$#+@+",
"+@+#$$$$$@@$$$$$$$$$$@@$$$$$#+@+",
"+@+#$$$$$$@@$$$$$$$$@@$$$$$$#+@+",
"+@+#$$$$$@$@@@$$$$@@@$@$$$$$#+@+",
"+@+#$$$$@$$$$@$$$$@$$$$@$$$$#+@+",
"+@+#$$$$$$$$$@$$$$@$$$$$$$$$#+@+",
"+@+#$$$$$$$$$$$$$$$$$$$$$$$$#+@+",
"+@+#$$$$$$$$$$$$$$$$$$$$$$$$#+@+",
"+@+#$$$$$$$$$$$$$$$$$$$$$$$$#+@+",
"+@+#$$$$$$$$$$$$$$$$$$$$$$$$#+@+",
"+@+##########################+@+",
"+@++++++++++++++++++++++++++++@+",
"+@@@@@@@@@@@@@@@@@@@@@@@@@@@@@@+",
".++++++++++++++++++++++++++++++."};
