/* XPM */
static char * QWTKnob_xpm[] = {
"32 32 14 1",
" 	c None",
".	c #969696",
"+	c #707070",
"@	c #000000",
"#	c #EFEFEF",
"$	c #FFFFFF",
"%	c #D5D5D5",
"&	c #676767",
"*	c #141414",
"=	c #929292",
"-	c #F7FF00",
";	c #C5C5C5",
">	c #484848",
",	c #080808",
".++++++++++++++++++++++++++++++.",
"+@@@@@@@@@@@@@@@@@@@@@@@@@@@@@@+",
"+@++++++++++++++++++++++++++++@+",
"+@+##########################+@+",
"+@+#$$$$$$$$$$$$$$$$$$$$$$$$#+@+",
"+@+#$$$$$$$$$$$$$$$$$$$$$$$$#+@+",
"+@+#$$$$$$$$$$$@$$$$$$$$$$$$#+@+",
"+@+#$$$$$$@$$$$@$$$$$@$$$$$$#+@+",
"+@+#$$$$$$$@$@@@@@@$@$$$$$$$#+@+",
"+@+#$$$@$$$@@@$$$$@@@$$$@$$$#+@+",
"+@+#$$$$@$@@$$$$$$$$@@$@$$$$#+@+",
"+@+#$$$$$@@$$%&**&%$$@@$$$$$#+@+",
"+@+#$$$$$@$$=-@@@@@=$$@$$$$$#+@+",
"+@+#$$$$@@$;---@@@@@;$@@$$$$#+@+",
"+@+#$$@@@$$>@-@@@@@@>$$@@@$$#+@+",
"+@+#$$$$@$$,@@@@@@@@,$$@$$$$#+@+",
"+@+#$$$$@$$>@@@@@@@@>$$@$$$$#+@+",
"+@+#$$$$@@$;@@@@@@@@;$@@$$$$#+@+",
"+@+#$$@@$@$$=@@@@@@=$$@$@@$$#+@+",
"+@+#$$$$$@@$$%&**&%$$@@$$$$$#+@+",
"+@+#$$$$$$@@$$$$$$$$@@$$$$$$#+@+",
"+@+#$$$$$@$@@@$$$$@@@$@$$$$$#+@+",
"+@+#$$$$@$$$$@$$$$@$$$$@$$$$#+@+",
"+@+#$$$$$$$$$@$$$$@$$$$$$$$$#+@+",
"+@+#$$$$$$$$$$$$$$$$$$$$$$$$#+@+",
"+@+#$$$$$$$$$$$$$$$$$$$$$$$$#+@+",
"+@+#$$$$$$$$$$$$$$$$$$$$$$$$#+@+",
"+@+#$$$$$$$$$$$$$$$$$$$$$$$$#+@+",
"+@+##########################+@+",
"+@++++++++++++++++++++++++++++@+",
"+@@@@@@@@@@@@@@@@@@@@@@@@@@@@@@+",
".++++++++++++++++++++++++++++++."};
