/* XPM */
static char * QWTScale_xpm[] = {
"32 32 6 1",
" 	c None",
".	c #969696",
"+	c #707070",
"@	c #000000",
"#	c #EFEFEF",
"$	c #FFFFFF",
".++++++++++++++++++++++++++++++.",
"+@@@@@@@@@@@@@@@@@@@@@@@@@@@@@@+",
"+@++++++++++++++++++++++++++++@+",
"+@+##########################+@+",
"+@+#$$$$$$$$$$$$$$$$$$$$$$$$#+@+",
"+@+#$$$$$$$$$$$$$$$$$$$$$$$$#+@+",
"+@+#$$$$$$$$$$$$$$$$$$$$$$$$#+@+",
"+@+#$$$$$$$$$$$$$$$$$$$$$$$$#+@+",
"+@+#$$$$$$$$$$$$$$$$$$$$$$$$#+@+",
"+@+#$$$$$$$$$$$$$$$$$$$$$$$$#+@+",
"+@+#$$$$$$$$$$$$$$$$$$$$$$$$#+@+",
"+@+#$@@$$$$$$$@@$$$$$$$$@@@$#+@+",
"+@+#@$$@$$$$$$$@$$$$$$$$$$@$#+@+",
"+@+#@$$@$$$$$$$@$$$$$$$$$@$$#+@+",
"+@+#@$$@$$$$$$$@$$$$$$$$@$$$#+@+",
"+@+#$@@$$$$$$$@@@$$$$$$$@@@$#+@+",
"+@+#$$$$$$$$$$$$$$$$$$$$$$$$#+@+",
"+@+#$@$$$$$$$$$@$$$$$$$$$@$$#+@+",
"+@+#$@$$$$$$$$$@$$$$$$$$$@$$#+@+",
"+@+#$@$$$$$$$$$@$$$$$$$$$@$$#+@+",
"+@+#$@$$$$$$$$$@$$$$$$$$$@$$#+@+",
"+@+#$@$@$@$@$@$@$@$@$@$@$@$$#+@+",
"+@+#$@$@$@$@$@$@$@$@$@$@$@$$#+@+",
"+@+#$@@@@@@@@@@@@@@@@@@@@@$$#+@+",
"+@+#$$$$$$$$$$$$$$$$$$$$$$$$#+@+",
"+@+#$$$$$$$$$$$$$$$$$$$$$$$$#+@+",
"+@+#$$$$$$$$$$$$$$$$$$$$$$$$#+@+",
"+@+#$$$$$$$$$$$$$$$$$$$$$$$$#+@+",
"+@+##########################+@+",
"+@++++++++++++++++++++++++++++@+",
"+@@@@@@@@@@@@@@@@@@@@@@@@@@@@@@+",
".++++++++++++++++++++++++++++++."};
