/* XPM */
static char * QWTWheel_xpm[] = {
"32 32 90 1",
" 	c None",
".	c #969696",
"+	c #707070",
"@	c #000000",
"#	c #EFEFEF",
"$	c #FFFFFF",
"%	c #CACACA",
"&	c #C0C0C0",
"*	c #5C5C5C",
"=	c #424242",
"-	c #030303",
";	c #D1D1D1",
">	c #E8E9E8",
",	c #E7E8E7",
"'	c #D0D0D0",
")	c #B8B8B9",
"!	c #A1A2A1",
"~	c #8C8C8C",
"{	c #ABABAA",
"]	c #CCCBCC",
"^	c #EDEDED",
"/	c #F0F0F0",
"(	c #D0CFCF",
"_	c #E6E7E6",
":	c #FEFEFE",
"<	c #E9E9E9",
"[	c #D2D2D2",
"}	c #BBBBBB",
"|	c #A4A3A3",
"1	c #A9A9A9",
"2	c #CACAC9",
"3	c #EBEBEB",
"4	c #F2F2F2",
"5	c #CDCDCD",
"6	c #E5E4E5",
"7	c #FCFCFB",
"8	c #EBEAEA",
"9	c #D4D4D4",
"0	c #BCBCBC",
"a	c #A5A5A5",
"b	c #8E8E8D",
"c	c #A7A7A7",
"d	c #C8C8C8",
"e	c #F3F3F3",
"f	c #CCCCCC",
"g	c #E2E3E3",
"h	c #FAFAFA",
"i	c #ECEDEC",
"j	c #D5D5D5",
"k	c #BDBEBE",
"l	c #A6A7A7",
"m	c #8F9090",
"n	c #C6C6C6",
"o	c #E8E8E7",
"p	c #F5F5F5",
"q	c #E1E2E2",
"r	c #F8F8F8",
"s	c #EEEEEE",
"t	c #D7D7D7",
"u	c #BFBFC0",
"v	c #A8A8A9",
"w	c #919191",
"x	c #A4A4A3",
"y	c #C5C5C5",
"z	c #E6E6E6",
"A	c #F7F7F6",
"B	c #E0DFDF",
"C	c #D9D8D8",
"D	c #C1C1C1",
"E	c #AAAAAA",
"F	c #939292",
"G	c #A1A2A2",
"H	c #C3C3C3",
"I	c #F9F9F8",
"J	c #C6C6C7",
"K	c #DEDEDE",
"L	c #DADBDA",
"M	c #C4C3C3",
"N	c #ACABAC",
"O	c #959595",
"P	c #A0A1A0",
"Q	c #E2E3E2",
"R	c #FAFBFA",
"S	c #C4C5C5",
"T	c #DCDCDC",
"U	c #F3F4F4",
"V	c #ADADAE",
"W	c #9E9E9E",
"X	c #E1E0E1",
"Y	c #FCFCFC",
".++++++++++++++++++++++++++++++.",
"+@@@@@@@@@@@@@@@@@@@@@@@@@@@@@@+",
"+@++++++++++++++++++++++++++++@+",
"+@+##########################+@+",
"+@+#$$$$$$$$$$$$$$$$$$$$$$$$#+@+",
"+@+#$$$$$$$$$$$$$$$$$$$$$$$$#+@+",
"+@+#$$$$$$$$$$$$$$$$$$$$$$$$#+@+",
"+@+#$$$$$$$$$$$$$$$$$$$$$$$$#+@+",
"+@+#$$$$$$$$$$$$$$$$$$$$$$$$#+@+",
"+@+#$$$$$$$$$$$$$$$$$$$$$$$$#+@+",
"+@+#$%&&&&&&&&&&&&&&&&&&&&%$#+@+",
"+@+#%*====================*%#+@+",
"+@+#&=--------------------=&#+@+",
"+@+#&=-;>$,')!~~~~~~~{]^/-=&#+@+",
"+@+#&=-(_:<[}|~~~~~~~1234-=&#+@+",
"+@+#&=-567890ab~~~~~~cd<e-=&#+@+",
"+@+#&=-fghijklm~~~~~~anop-=&#+@+",
"+@+#&=-%qrstuvw~~~~~~xyzA-=&#+@+",
"+@+#&=-dBA/CDEF~~~~~~GH6I-=&#+@+",
"+@+#&=-JKp4LMNO~~~~~~PDQR-=&#+@+",
"+@+#&=-STUUTyV.~~~~~~W&XY-=&#+@+",
"+@+#&=--------------------=&#+@+",
"+@+#%*====================*%#+@+",
"+@+#$%&&&&&&&&&&&&&&&&&&&&%$#+@+",
"+@+#$$$$$$$$$$$$$$$$$$$$$$$$#+@+",
"+@+#$$$$$$$$$$$$$$$$$$$$$$$$#+@+",
"+@+#$$$$$$$$$$$$$$$$$$$$$$$$#+@+",
"+@+#$$$$$$$$$$$$$$$$$$$$$$$$#+@+",
"+@+##########################+@+",
"+@++++++++++++++++++++++++++++@+",
"+@@@@@@@@@@@@@@@@@@@@@@@@@@@@@@+",
".++++++++++++++++++++++++++++++."};
