/* XPM */
static char * Conveyor_xpm[] = {
"37 38 22 1",
" 	c None",
".	c #000000",
"+	c #171717",
"@	c #606060",
"#	c #1A1A1A",
"$	c #1F1F1F",
"%	c #939393",
"&	c #2A2A2A",
"*	c #141414",
"=	c #4D4D4D",
"-	c #262626",
";	c #2E2E2E",
">	c #4B4B4B",
",	c #101010",
"'	c #323232",
")	c #232323",
"!	c #2C2C2C",
"~	c #313131",
"{	c #202020",
"]	c #2B2B2B",
"^	c #111111",
"/	c #434343",
"                                     ",
"                                     ",
"                                     ",
"                                     ",
"                                     ",
"                                     ",
"                                     ",
"                                     ",
"                                     ",
"           ..           ..           ",
"       .....             .....       ",
"       .......................       ",
"          ...           ...          ",
"                                     ",
"                                     ",
"                                     ",
"                                     ",
"                                     ",
"                                     ",
"                                     ",
"                                     ",
"                                     ",
"                                     ",
"                 +@@@@@@@@@@@@#      ",
"                 $%%%%%%%%%%%%&      ",
"  *==============-%%%%%%%%%%%%;>==*  ",
"  ,'''''''''''''')%%%%%%%%%%%%!~'',  ",
"                 {%%%%%%%%%%%%]      ",
"                 ^////////////^      ",
"                                     ",
"                                     ",
"                                     ",
"                                     ",
"                                     ",
"                                     ",
"                                     ",
"                                     ",
"                                     "};
