/* XPM */
static char * ImageButton_xpm[] = {
"30 30 6 1",
" 	g None",
".	g #FFFFFF",
"+	g #C9C9C9",
"@	g #DADADA",
"#	g #BABABA",
"$	g #717171",
"...++++@+++++++++++++++++++...",
"..+++++@++++@@++++++++++++++..",
".@+++++@+++@@++++++++++++++++.",
"+@@+++@@@@@@++++++++++++++++++",
"+++@@@@@@@@+++++++++++++++++++",
"++++@@@@@@@@++++++++++++++++++",
"+@@@@@@@@@@@@@@@@@@@@@@@++++++",
"++++@@@@@@@@+++++++++++++#++++",
"+++++@@@@@@++++++++++++#####++",
"+++++@@@@@+@++++++++++#######+",
"++++@@++@++@@++++++++#########",
"++++@+++@+##+@++++++##########",
"+++@++++@###++@++++###########",
"+++@+++#@####++++++###########",
"++@+++##@#####++++############",
"+++++###@######+++############",
"++++############+#############",
"+++###########################",
"++############################",
"+#############################",
"##############################",
"##############################",
"##############################",
"$$$$$$$$$$$$$$################",
"$$$$$$$$$$$$$$$$$$$###########",
"$$$$$$$$$$$$$$$$$$$$$$########",
"$$$$$$$$$$$$$$$$$$$$$$$#######",
".$$$$$$$$$$$$$$$$$$$$$$$#####.",
"..$$$$$$$$$$$$$$$$$$$$$$####..",
"...$$$$$$$$$$$$$$$$$$$$####..."};
