/* XPM */
static char * Lift_xpm[] = {
"38 38 16 1",
" 	c None",
".	c #131313",
"+	c #3D3D3D",
"@	c #141414",
"#	c #181818",
"$	c #8A8A8A",
"%	c #000000",
"&	c #1B1B1B",
"*	c #1C1C1C",
"=	c #353535",
"-	c #1A1A1A",
";	c #777777",
">	c #939393",
",	c #656565",
"'	c #303030",
")	c #171717",
"                                      ",
"                                      ",
"                                      ",
"             .+@                      ",
"             #$#                      ",
"             #$#                      ",
"             #$#                      ",
"             #$#             %%       ",
"             #$#             %%       ",
"             #$#             %%       ",
"             #$#            %%%%      ",
"             #$#            %%%%      ",
"             #$#                      ",
"             #$#                      ",
"             #$#                      ",
"             #$#                      ",
"             #$#                      ",
"             #$#                      ",
"             #$#                      ",
"             #$#                      ",
"        &****&=*****-                 ",
"       .;>>>>>>>>>>>,                 ",
"       .;>>>>>>>>>>>,                 ",
"       .;>>>>>>>>>>>,                 ",
"       .;>>>>>>>>>>>,       %%%%      ",
"       .;>>>>>>>>>>>,       %%%%      ",
"        ######'#####)        %%       ",
"             #$#             %%       ",
"             #$#             %%       ",
"             #$#                      ",
"             #$#                      ",
"             #$#                      ",
"             #$#                      ",
"             #$#                      ",
"             .+@                      ",
"                                      ",
"                                      ",
"                                      "};
