/* XPM */
static char * Buttona_xpm[] = {
"30 30 51 1",
" 	c None",
".	c #82FF71",
"+	c #1EFF00",
"@	c #108700",
"#	c #1AE200",
"$	c #0B6100",
"%	c #031A00",
"&	c #000500",
"*	c #0B6000",
"=	c #000000",
"-	c #18D400",
";	c #031C00",
">	c #000300",
",	c #119200",
"'	c #021700",
")	c #16C300",
"!	c #1DF900",
"~	c #16C100",
"{	c #021800",
"]	c #16C200",
"^	c #011000",
"/	c #010D00",
"(	c #15B600",
"_	c #13A500",
":	c #13A200",
"<	c #14AC00",
"[	c #000800",
"}	c #031F00",
"|	c #18D300",
"1	c #1BEA00",
"2	c #1BE900",
"3	c #119400",
"4	c #000200",
"5	c #063700",
"6	c #1BE800",
"7	c #000400",
"8	c #1DFC00",
"9	c #15B400",
"0	c #1BEB00",
"a	c #000100",
"b	c #000700",
"c	c #14B100",
"d	c #13A700",
"e	c #13A300",
"f	c #13A400",
"g	c #031B00",
"h	c #17C400",
"i	c #021900",
"j	c #010A00",
"k	c #119700",
"l	c #0F8700",
"                              ",
"                              ",
"                              ",
"  ..........................  ",
"  .++++++++++++++++++++++++@  ",
"  .++++++++++++++++++++++++@  ",
"  .++++++++++++++++++++++++@  ",
"  .++++++++++++++++++++++++@  ",
"  .++++++++++++++++++++++++@  ",
"  .++++++++++++++++++++++++@  ",
"  .+++#$%&%*#+++==+++-;>,++@  ",
"  .++#'%)!~{'#++==++]^/(+++@  ",
"  .++*=_+++:=*++==+<[}|++++@  ",
"  .++{=1+++2=%++==3456+++++@  ",
"  .++7=8+++8=&++====9++++++@  ",
"  .++{=0+++1=%++==3abc+++++@  ",
"  .++*=d+++e=$++==+_&7f++++@  ",
"  .++#'gh!)i'#++==++(j4k+++@  ",
"  .+++#*{7{*#+++==+++h^=l++@  ",
"  .++++++++++++++++++++++++@  ",
"  .++++++++++++++++++++++++@  ",
"  .++++++++++++++++++++++++@  ",
"  .++++++++++++++++++++++++@  ",
"  .++++++++++++++++++++++++@  ",
"  .++++++++++++++++++++++++@  ",
"  .++++++++++++++++++++++++@  ",
"  @@@@@@@@@@@@@@@@@@@@@@@@@@  ",
"                              ",
"                              ",
"                              "};
