/* XPM */
static char * Image_xpm[] = {
"30 30 5 1",
" 	c None",
".	c #5EF7F9",
"+	c #FFF000",
"@	c #61F95E",
"#	c #5E61F9",
".......+......................",
".......+....++................",
".+.....+...++.................",
".++...++++++..................",
"...++++++++...................",
"....++++++++..................",
".+++++++++++++++++++++++......",
"....++++++++.............@....",
".....++++++............@@@@@..",
".....+++++.+..........@@@@@@@.",
"....++..+..++........@@@@@@@@@",
"....+...+.@@.+......@@@@@@@@@@",
"...+....+@@@..+....@@@@@@@@@@@",
"...+...@+@@@@......@@@@@@@@@@@",
"..+...@@+@@@@@....@@@@@@@@@@@@",
".....@@@+@@@@@@...@@@@@@@@@@@@",
"....@@@@@@@@@@@@.@@@@@@@@@@@@@",
"...@@@@@@@@@@@@@@@@@@@@@@@@@@@",
"..@@@@@@@@@@@@@@@@@@@@@@@@@@@@",
".@@@@@@@@@@@@@@@@@@@@@@@@@@@@@",
"@@@@@@@@@@@@@@@@@@@@@@@@@@@@@@",
"@@@@@@@@@@@@@@@@@@@@@@@@@@@@@@",
"@@@@@@@@@@@@@@@@@@@@@@@@@@@@@@",
"##############@@@@@@@@@@@@@@@@",
"###################@@@@@@@@@@@",
"######################@@@@@@@@",
"#######################@@@@@@@",
"########################@@@@@@",
"########################@@@@@@",
"#######################@@@@@@@"};
