/* XPM */
static char * Lampa_xpm[] = {
"30 30 33 1",
" 	c None",
".	c #000000",
"+	c #FF0000",
"@	c #00FF00",
"#	c #880316",
"$	c #2C0525",
"%	c #060317",
"&	c #000423",
"*	c #070317",
"=	c #000528",
"-	c #00138F",
";	c #001EDA",
">	c #0023FB",
",	c #000005",
"'	c #007A00",
")	c #000316",
"!	c #0018B1",
"~	c #0024FF",
"{	c #00010D",
"]	c #000420",
"^	c #008C00",
"/	c #0020EF",
"(	c #000422",
"_	c #00DC00",
":	c #000300",
"<	c #001DD5",
"[	c #007400",
"}	c #000C57",
"|	c #000003",
"1	c #002B00",
"2	c #001BC4",
"3	c #000500",
"4	c #0023F9",
"                              ",
" .....................        ",
" .+++++++++++++++++++.        ",
" .+++++++++++++++++++.        ",
" .+++++++++++++++++++.        ",
" .+++++++++++++++++++.        ",
" .+++++++++++++++++++.        ",
" .+++++++++++++++++++.        ",
" .++++++++.++++++++++.        ",
" .+++++++.@.+++++++++.        ",
" .+++++++.@.+++++++++.        ",
" .++++++.@@@.++++++++.        ",
" .++++++.@@@.++#$%..%$&       ",
" .+++++.@@@@@.*=-;>>;-=,&     ",
" .+++++.@@@@')!~~~~~~~~!{]    ",
" .++++.@@@@^)/~~~~~~~~~~/)(   ",
" .++++.@@@_:<~~~~~~~~~~~~<.   ",
"     .@@@@[}~~~~~~~~~~~~~~}|  ",
"     .@@@@1~~~~~~~~~~~~~~~2.  ",
"    .@@@@@3~~~~~~~~~~~~~~~4.  ",
"    .@@@@@3~~~~~~~~~~~~~~~4.  ",
"   .@@@@@@1~~~~~~~~~~~~~~~2.  ",
"   .@@@@@@[)~~~~~~~~~~~~~~},  ",
"  ...........~~~~~~~~~~~~<.   ",
"           ()/~~~~~~~~~~/)(   ",
"            ]{!~~~~~~~~!{]    ",
"             &,=-;>>;-=,&     ",
"               &),..,)&       ",
"                              ",
"                              "};
