/* XPM */
static char * SimpleTrafficLights_xpm[] = {
"30 30 33 1",
" 	c None",
".	c #110000",
"+	c #260000",
"@	c #1A0000",
"#	c #040000",
"$	c #250000",
"%	c #1D0000",
"&	c #8A0000",
"*	c #D40000",
"=	c #FA0000",
"-	c #5A0000",
";	c #FF0000",
">	c #1B0000",
",	c #3E0000",
"'	c #230000",
")	c #B40000",
"!	c #060000",
"~	c #F60000",
"{	c #002800",
"]	c #001B00",
"^	c #000400",
"/	c #001D00",
"(	c #008A00",
"_	c #00D400",
":	c #00FA00",
"<	c #005A00",
"[	c #00FF00",
"}	c #002100",
"|	c #003E00",
"1	c #002300",
"2	c #00B400",
"3	c #000600",
"4	c #00F600",
"                              ",
"                              ",
"           .+@##@+.           ",
"          $%&*==*&%$          ",
"         +-=;;;;;;=-+         ",
"        >,;;;;;;;;;;,>        ",
"        ');;;;;;;;;;)'        ",
"        !~;;;;;;;;;;~!        ",
"        !~;;;;;;;;;;~!        ",
"        ');;;;;;;;;;)'        ",
"        >,;;;;;;;;;;,>        ",
"         +-=;;;;;;=-+         ",
"          $%&*==*&%$          ",
"           .+@##@+.           ",
"                              ",
"                              ",
"            {]^^]{            ",
"          {/(_::_(/{          ",
"         {<:[[[[[[:<{         ",
"        }|[[[[[[[[[[|}        ",
"        12[[[[[[[[[[21        ",
"        34[[[[[[[[[[43        ",
"        34[[[[[[[[[[43        ",
"        12[[[[[[[[[[21        ",
"        }|[[[[[[[[[[|}        ",
"         {<:[[[[[[:<{         ",
"          {/(_::_(/{          ",
"            {]^^]{            ",
"                              ",
"                              "};
