/* XPM */
static char * LineInput_xpm[]={
"22 22 38 1",
". c None",
"h c #000000",
"A c #585858",
"J c #5b5b5b",
"b c #646464",
"a c #676767",
"# c #6b6b6b",
"I c #909090",
"F c #939393",
"E c #959595",
"H c #999999",
"G c #9c9c9c",
"z c #a3a3a3",
"w c #a9a9a9",
"t c #afafaf",
"q c #b5b5b5",
"o c #bababa",
"l c #c0c0c0",
"D c #c1c1c1",
"i c #c5c5c5",
"C c #c7c7c7",
"y c #cecece",
"B c #d1d1d1",
"v c #d4d4d4",
"x c #d8d8d8",
"s c #dcdcdc",
"u c #dddddd",
"r c #e3e3e3",
"p c #e4e4e4",
"e c #e9e9e9",
"n c #eaeaea",
"m c #eeeeee",
"k c #f1f1f1",
"j c #f3f3f3",
"c c #f4f4f4",
"g c #f7f7f7",
"f c #f8f8f8",
"d c #fdfdfd",
"......................",
"......................",
"......................",
"......................",
"......................",
"......................",
"......................",
"...#aaaaaaaaaaaaab....",
"..cddddddddddddddde...",
".#fggggggggggghghgih..",
".ajkhhhkkhhhhkkhkklh..",
".amhnnnhnhnnnhnhnnoh..",
".aehhhhhphhhhpphppqh..",
".arhssshshssshshssth..",
".auhvvvhvhhhhvvhvvwh..",
".axyyyyyyyyyyyhyhyzh..",
".ABCCCCCCCCCCCCCCDEh..",
"..FGHHHHHHHHHHHHHIJ...",
"...hhhhhhhhhhhhhhh....",
"......................",
"......................",
"......................"};
