/* XPM */
static char *lintouch[] = {
/* columns rows colors chars-per-pixel */
"32 32 4 1",
"  c black",
". c navy",
"X c gray100",
"o c None",
/* pixels */
"o..............................o",
"................................",
"..XXXXXXXXXXXXXXXXXXXXXXXXXXXX..",
"..XX.......XXXX.............XX..",
"..XX.......XXXX.............XX..",
"..XX.......XXXX.............XX..",
"..XX.......XXXX.............XX..",
"..XX.......XXXX.............XX..",
"..XX.......XXXX.............XX..",
"..XX.......XXXXXXXXXX.......XX..",
"..XX.......XXXXXXXXXX.......XX..",
"..XX.......XXXXXXXXXX.......XX..",
"..XX.......XXXXXXXXXX.......XX..",
"..XX.......XXXXXXXXXX.......XX..",
"..XX.......XXXXXXXXXX.......XX..",
"..XX.......XXXXXXXXXX.......XX..",
"..XX.......XXXXXXXXXX.......XX..",
"..XX.......XXXXXXXXXX.......XX..",
"..XX.......XXXXXXXXXX.......XX..",
"..XX.......XXXXXXXXXX.......XX..",
"..XX.......XXXXXXXXXX.......XX..",
"..XX........XXXXXXXXX.......XX..",
"..XX..............XXX.......XX..",
"..XX..............XXX.......XX..",
"..XX..............XXX.......XX..",
"..XXX.............XXX.......XX..",
"..XXXX............XXX.......XX..",
"..XXXXX...........XXX.......XX..",
"..XXXXXXXXXXXXXXXXXXXXXXXXXXXX..",
"..XXXXXXXXXXXXXXXXXXXXXXXXXXXX..",
"................................",
"o..............................o"
};
