/* XPM */
static char * Image_xpm[] = {
"30 30 49 1",
" 	c None",
".	c #000000",
"+	c #9C9C9C",
"@	c #D1D1D1",
"#	c #9D9D9D",
"$	c #9E9E9E",
"%	c #9F9F9F",
"&	c #A0A0A0",
"*	c #A2A2A2",
"=	c #A4A4A4",
"-	c #BDBDBD",
";	c #959595",
">	c #999999",
",	c #969696",
"'	c #909090",
")	c #898989",
"!	c #8E8E8E",
"~	c #9A9A9A",
"{	c #AEAEAE",
"]	c #8A8A8A",
"^	c #868686",
"/	c #9B9B9B",
"(	c #A1A1A1",
"_	c #8D8D8D",
":	c #919191",
"<	c #AFAFAF",
"[	c #979797",
"}	c #878787",
"|	c #989898",
"1	c #B1B1B1",
"2	c #939393",
"3	c #888888",
"4	c #949494",
"5	c #595959",
"6	c #838383",
"7	c #313131",
"8	c #515151",
"9	c #535353",
"0	c #616161",
"a	c #393939",
"b	c #4D4D4D",
"c	c #686868",
"d	c #3C3C3C",
"e	c #696969",
"f	c #3A3A3A",
"g	c #6B6B6B",
"h	c #646464",
"i	c #5B5B5B",
"j	c #848484",
"..............................",
".++++++@@+++#$+++++++++++++++.",
".+%++++@@++%@@$++++++++++++++.",
".$@&++$@@**@@%+++++++++++++++.",
".#@@==@@@@@@&++++++++++++++++.",
".++&@@@@@@@@$++++++++++++++++.",
".#--@@@@@@@@@----------&+++++.",
".#@@@@@@@@@@@@@@@@@@@@@*;>+++.",
".+++%@@@@@@@%+++++++++,')!'~+.",
".++++{@@@@@@%++++++++,]^^^^!/.",
".+++(@@{@@%@@$++++++,]^^^^^^_.",
".+++=@&+@-::&<#++++[]^^^^^^^^.",
".++&@&++@#}^|(1+++[)^^^^^^^^^.",
".++*@++2*~^^3>%+++,^^^^^^^^^^.",
".+%@#+4}(~^^^}/++|}^^^^^^^^^^.",
".++++4^^%>^^^^^/+,^^^^^^^^^^^.",
".++/4^^^^^^^^^^}[^^^^^^^^^^^^.",
".+/4^^^^^^^^^^^^^^^^^^^^^^^^^.",
".+4^^^^^^^^^^^^^^^^^^^^^^^^^^.",
".4^^^^^^^^^^^^^^^^^^^^^^^^^^^.",
".^^^^^^^^^^^^^^^^^^^^^^^^^^^^.",
".^^^^^^^^^^^^^^^^^^^^^^^^^^^^.",
".55555555555556^^^^^^^^^^^^^^.",
".777777777777789990^^^^^^^^^^.",
".77777777777777777abbc^^^^^^^.",
".77777777777777777777de^^^^^^.",
".777777777777777777777fg^^^^^.",
".7777777777777777777777h^^^^^.",
".777777777777777777777ij^^^^^.",
".............................."};
