/* XPM */
static char * Lamp_Arrow_xpm[] = {
"32 32 15 1",
" 	c None",
".	c #000000",
"+	c #121212",
"@	c #0B0B0B",
"#	c #696969",
"$	c #B1B1B1",
"%	c #101010",
"&	c #8F8F8F",
"*	c #FFFFFF",
"=	c #C0C0C0",
"-	c #A0A0A0",
";	c #8D8D8D",
">	c #F6F6F6",
",	c #F3F3F3",
"'	c #1B1B1B",
"                                ",
"                                ",
"                 .              ",
"                ..+             ",
"                .@#$            ",
"                .%&*=           ",
"                .%&**=          ",
"                .%$**$-         ",
"                .%$***$-        ",
"  ...............%$*$**$-       ",
" ..@%%%%%%%%%%%%%%$*=$**$-      ",
" .@;$$$$$$$$$$$$$$=*>-$**$-     ",
" .%$***************** -$**$-    ",
" .%$****************   -$**$    ",
" .%$**                  -$**,   ",
" .%$**                  +#&***  ",
" .%$*,                 ..@;=**  ",
" .%$*$'...........    ..@;=***  ",
" .%&*&%%%%%%%%%%%%'  ..@;=***   ",
"  '$*$$$$$$$$$$$$&$=;@@;=***    ",
"   ,****************&%;=***     ",
"    ***********,$&$*&;=***      ",
"                '%$*$=***       ",
"                .%&*$***        ",
"                .%&*=**         ",
"                 '$****         ",
"                  ,***          ",
"                   **           ",
"                                ",
"                                ",
"                                ",
"                                "};
