/* XPM */
static char * Lamp_Triangle_xpm[] = {
"32 32 14 1",
" 	c None",
".	c #000000",
"+	c #121212",
"@	c #A0A0A0",
"#	c #F6F6F6",
"$	c #101010",
"%	c #B1B1B1",
"&	c #FFFFFF",
"*	c #696969",
"=	c #1B1B1B",
"-	c #8F8F8F",
";	c #F3F3F3",
">	c #8D8D8D",
",	c #C0C0C0",
"                                ",
"              .                 ",
"             ...                ",
"             ..+@#              ",
"            ...$%&&             ",
"            ..+*%&#             ",
"           ...=-&&&&            ",
"           ..+@%&%&#            ",
"          ...=;&&-&&&           ",
"          ..+@#&%*%&#           ",
"         ...=;&&%$-&&&          ",
"         ..+@#&#@+*%&#          ",
"        ...=;&&& .$-&&&         ",
"        ..+@#&&   +*%&#         ",
"       ...=;&&&   .$-&&&        ",
"       ..+@#&&     +*%&#        ",
"      ...=;&&&     .$-&&&       ",
"      ..+@#&&       +*%&#       ",
"     ...=;&&&       .$-&&&      ",
"     ..+@#&&         +*%&#      ",
"     ..=;&&&         .$-&&&     ",
"    ...=;&&           +*%&#     ",
"    ..+@#&&           .$-&&&    ",
"   ...=;&&;            +*%&#    ",
"   ..+>%&%>+............$-&&&   ",
"  ...$-&&-$$$$$$$$$$$$$$$*%&&   ",
"   .+>%&%%%%%%%%%%%%%%%%%%,&&&  ",
"     ;&&&&&&&&&&&&&&&&&&&&&&&&  ",
"      &&&&&&&&&&&&&&&&&&&&&&&   ",
"                                ",
"                                ",
"                                "};
