/* XPM */
static char * Lamp_Rect_xpm[] = {
"32 32 12 1",
" 	c None",
".	c #000000",
"+	c #0B0B0B",
"@	c #101010",
"#	c #1B1B1B",
"$	c #8D8D8D",
"%	c #B1B1B1",
"&	c #8F8F8F",
"*	c #F3F3F3",
"=	c #FFFFFF",
"-	c #E8E8E8",
";	c #F6F6F6",
"                                ",
"                                ",
"   .......................      ",
"  ..+@@@@@@@@@@@@@@@@@@@@@#     ",
"  .+$%%%%%%%%%%%%%%%%%%%%&%*=   ",
"  .@%=========================  ",
"  .@%==================-%&%*==  ",
"  .@%==                 #@#*==  ",
"  .@%==                 ..#*==  ",
"  .@%==                 ..#*==  ",
"  .@%==                 ..#*==  ",
"  .@%==                 ..#*==  ",
"  .@%==                 ..#*==  ",
"  .@%==                 ..#*==  ",
"  .@%==                 ..#*==  ",
"  .@%==                 ..#*==  ",
"  .@%==                 ..#*==  ",
"  .@%==                 ..#*==  ",
"  .@%==                 ..#*==  ",
"  .@%==                 ..#*==  ",
"  .@%==                 ..#*==  ",
"  .@%==                 ..#*==  ",
"  .@%==                 ..#*==  ",
"  .@%=-                 ..#*==  ",
"  .@%=%#..................#*==  ",
"  .@&=&@..................#*==  ",
"   #%=%################### ;==  ",
"    *=********************;===  ",
"    ==========================  ",
"     ========================   ",
"                                ",
"                                "};
