/* XPM */
static char * Lamp_Circle_xpm[] = {
"32 32 62 1",
" 	c None",
".	c #000000",
"+	c #080808",
"@	c #0C0C0C",
"#	c #1B1B1B",
"$	c #030303",
"%	c #040404",
"&	c #2B2B2B",
"*	c #383838",
"=	c #9A9A9A",
"-	c #C4C4C4",
";	c #ABABAB",
">	c #8E8E8E",
",	c #050505",
"'	c #4C4C4C",
")	c #606060",
"!	c #A6A6A6",
"~	c #D8D8D8",
"{	c #DFDFDF",
"]	c #FFFFFF",
"^	c #FAFAFA",
"/	c #F9F9F9",
"(	c #E0E0E0",
"_	c #C7C7C7",
":	c #B1B1B1",
"<	c #A0A0A0",
"[	c #6C6C6C",
"}	c #B3B3B3",
"|	c #EBEBEB",
"1	c #EFEFEF",
"2	c #F6F6F6",
"3	c #D0D0D0",
"4	c #E3E3E3",
"5	c #ADADAD",
"6	c #C0C0C0",
"7	c #ECECEC",
"8	c #0D0D0D",
"9	c #9F9F9F",
"0	c #F3F3F3",
"a	c #6E6E6E",
"b	c #BCBCBC",
"c	c #CDCDCD",
"d	c #2F2F2F",
"e	c #B5B5B5",
"f	c #545454",
"g	c #8F8F8F",
"h	c #101010",
"i	c #141414",
"j	c #737373",
"k	c #C5C5C5",
"l	c #FDFDFD",
"m	c #F4F4F4",
"n	c #181818",
"o	c #E6E6E6",
"p	c #A8A8A8",
"q	c #555555",
"r	c #8D8D8D",
"s	c #121212",
"t	c #727272",
"u	c #535353",
"v	c #898989",
"w	c #FCFCFC",
"                                ",
"                                ",
"                                ",
"                                ",
"                                ",
"            .......             ",
"          ...+@@@@@##           ",
"        .$%&*=----;;;>*         ",
"      ..,')!~{]]]^/(]__>:<      ",
"     ..+[}|1]]]     23]4|5<     ",
"    .$&=3]]]]         657]-     ",
"   ..89{]]]            <9_]{0   ",
"   .+ab]]                >;]c   ",
"  .$de]]]                #>4]0  ",
"  .89{]]                  fg]/] ",
"  .h:]]                   ijk]] ",
"  .h:]l                   .h:]] ",
"  .h<]m                  ..h:]] ",
"   ng]c                  .+ab]] ",
"   #>4]o                .$de]]] ",
"    fg]{6              ..89{]]  ",
"     >;]e<            ..+ab]]   ",
"      57]->         .$%&=3]]]   ",
"      <p~]_>qr#s...,+')!{]]]    ",
"         3]44>tu@@@[v}|1]]      ",
"          06ww]----3]]]]]       ",
"            00]]]]]]]]]         ",
"                                ",
"                                ",
"                                ",
"                                ",
"                                "};
