/* XPM */
static char * Lamp_Line_xpm[] = {
"32 32 32 1",
" 	c None",
".	c #000000",
"+	c #111111",
"@	c #2C2C2C",
"#	c #606060",
"$	c #A4A4A4",
"%	c #CACACA",
"&	c #E7E7E7",
"*	c #191919",
"=	c #3C3C3C",
"-	c #848484",
";	c #D7D7D7",
">	c #F0F0F0",
",	c #F7F7F7",
"'	c #1B1B1B",
")	c #3F3F3F",
"!	c #898989",
"~	c #E4E4E4",
"{	c #FFFFFF",
"]	c #FAFAFA",
"^	c #1E1E1E",
"/	c #494949",
"(	c #8F8F8F",
"_	c #E5E5E5",
":	c #666666",
"<	c #AAAAAA",
"[	c #ECECEC",
"}	c #FBFBFB",
"|	c #C8C8C8",
"1	c #EFEFEF",
"2	c #FDFDFD",
"3	c #F8F8F8",
"                                ",
"             ...                ",
"             +@#$%&             ",
"             *=-;>,             ",
"             ')!~{]             ",
"             ')!~{]             ",
"             ')!~{]             ",
"             ')!~{]             ",
"             ')!~{]             ",
"             ')!~{]             ",
"             ')!~{]             ",
"             ')!~{]             ",
"             ')!~{]             ",
"             ')!~{]             ",
"             ')!~{]             ",
"             ')!~{]             ",
"             ')!~{]             ",
"             ')!~{]             ",
"             ')!~{]             ",
"             ')!~{]             ",
"             ')!~{]             ",
"             ')!~{]             ",
"             ')!~{]             ",
"             ')!~{]             ",
"             ')!~{]             ",
"             ')!~{]             ",
"             ')!~{]             ",
"             ')!~{]             ",
"             ^/(_{]             ",
"             @:<[{}             ",
"               |1]2             ",
"                 3              "};
