/* XPM */
static char * Meter_xpm[] = {
"32 32 29 1",
" 	c None",
".	c #969696",
"+	c #707070",
"@	c #000000",
"#	c #EFEFEF",
"$	c #FF0000",
"%	c #E51202",
"&	c #E61202",
"*	c #CC2403",
"=	c #CC2303",
"-	c #B23605",
";	c #B33605",
">	c #994707",
",	c #994807",
"'	c #805909",
")	c #805908",
"!	c #7F5909",
"~	c #666B0A",
"{	c #4C7D0B",
"]	c #4C7D0C",
"^	c #338F0D",
"/	c #338F0E",
"(	c #19A10F",
"_	c #19A00F",
":	c #1AA10F",
"<	c #00B210",
"[	c #00B211",
"}	c #00B310",
"|	c #00B311",
".++++++++++++++++++++++++++++++.",
"+@@@@@@@@@@@@@@@@@@@@@@@@@@@@@@+",
"+@++++++++++++++++++++++++++++@+",
"+@+##########################+@+",
"+@+#########@@@@@@@@#########+@+",
"+@+#########@$$$$$$@#########+@+",
"+@+#########@$$$$$$@#########+@+",
"+@+#########@%&%%&%@#########+@+",
"+@+#########@**=**=@#########+@+",
"+@+#########@-;--;-@#########+@+",
"+@+#########@>,>>,>@#########+@+",
"+@+#########@')!')!@#########+@+",
"+@+#########@~~~~~~@#########+@+",
"+@+#########@{]]{]]@#########+@+",
"+@+#########@^/^^/^@#########+@+",
"+@+#########@(_:(_:@#########+@+",
"+@+#########@<[[<[[@#########+@+",
"+@+#########@}|[}|[@#########+@+",
"+@+#########@}|[}|[@#########+@+",
"+@+#########@|<||<|@#########+@+",
"+@+#########@<[|<[|@#########+@+",
"+@+#########@|[||[|@#########+@+",
"+@+#########@[||[||@#########+@+",
"+@+#########@<|<<|<@#########+@+",
"+@+#########@|[[|[[@#########+@+",
"+@+#########@[|[[|[@#########+@+",
"+@+#########@|[||[|@#########+@+",
"+@+#########@@@@@@@@#########+@+",
"+@+##########################+@+",
"+@++++++++++++++++++++++++++++@+",
"+@@@@@@@@@@@@@@@@@@@@@@@@@@@@@@+",
".++++++++++++++++++++++++++++++."};
