/* XPM */
static char * Number_xpm[] = {
"32 32 6 1",
" 	c None",
".	c #969696",
"+	c #707070",
"@	c #000000",
"#	c #CFCFCF",
"$	c #10109E",
".++++++++++++++++++++++++++++++.",
"+@@@@@@@@@@@@@@@@@@@@@@@@@@@@@@+",
"+@++++++++++++++++++++++++++++@+",
"+@+##########################+@+",
"+@+##########################+@+",
"+@+##########################+@+",
"+@+##########################+@+",
"+@+##$$$###$##$$$##$$$###$$##+@+",
"+@+##$#$#$$$##$#$##$#$###$$##+@+",
"+@+##$#$###$####$####$##$$$##+@+",
"+@+##$#$###$###$####$$##$$$##+@+",
"+@+##$#$###$###$#####$##$#$##+@+",
"+@+##$#$###$##$####$#$#$$#$##+@+",
"+@+##$#$###$##$####$#$#$$$$$#+@+",
"+@+##$$$###$##$$$##$$$####$##+@+",
"+@+##########################+@+",
"+@+##########################+@+",
"+@+##########################+@+",
"+@+##$$$##$$$#$$$$#$$$##$$$##+@+",
"+@+##$####$#$####$#$#$##$#$##+@+",
"+@+##$$$##$######$#$#$##$#$##+@+",
"+@+##$#$##$$$###$##$$$##$#$##+@+",
"+@+####$##$#$###$##$#$##$$$##+@+",
"+@+##$#$##$#$###$##$#$####$##+@+",
"+@+##$#$##$#$##$###$#$##$#$##+@+",
"+@+##$$$##$$$##$###$$$##$$$##+@+",
"+@+##########################+@+",
"+@+##########################+@+",
"+@+##########################+@+",
"+@++++++++++++++++++++++++++++@+",
"+@@@@@@@@@@@@@@@@@@@@@@@@@@@@@@+",
".++++++++++++++++++++++++++++++."};
