/* XPM */
static char * SVGImage_xpm[] = {
"24 24 37 1",
" 	c None",
".	c #7A7A7A",
"+	c #7F7F7F",
"@	c #7C7C7C",
"#	c #5D5D5D",
"$	c #7D7D7D",
"%	c #616161",
"&	c #7E7E7E",
"*	c #555555",
"=	c #646464",
"-	c #5C5C5C",
";	c #595959",
">	c #606060",
",	c #6C6C6C",
"'	c #6D6D6D",
")	c #747474",
"!	c #6A6A6A",
"~	c #545454",
"{	c #696969",
"]	c #6E6E6E",
"^	c #6B6B6B",
"/	c #666666",
"(	c #737373",
"_	c #7B7B7B",
":	c #686868",
"<	c #727272",
"[	c #707070",
"}	c #767676",
"|	c #656565",
"1	c #757575",
"2	c #777777",
"3	c #5B5B5B",
"4	c #6F6F6F",
"5	c #676767",
"6	c #787878",
"7	c #5F5F5F",
"8	c #464646",
"                        ",
"         .              ",
"         +@             ",
"        #++$            ",
"        %+++&         * ",
"        =+++++-  ;>,++' ",
"        )+++++++++++++  ",
"        +++++@+++++++!  ",
"       ~+++{{]^/@++++   ",
"      (+,+^__^)+/+++:   ",
"    <+++^+!.^+[(&'++    ",
"  <+++++^}(^+^.{+^+|    ",
" {++++++^+!}][1^+!+2    ",
"   %$+++{+/&22.:+{++3   ",
"     #}+_]+:^^!+4}++&   ",
"        @)]++++[4++++!  ",
"        5+6{!^{6++++++  ",
"        7++++++{[+++++1 ",
"         +++++;      >=8",
"         ++++#          ",
"         +++%           ",
"         1+=            ",
"         :5             ",
"                        "};
