/* XPM */
static char * Text_xpm[] = {
"32 32 33 1",
" 	c None",
".	c #000000",
"+	c #FFFFFF",
"@	c #101010",
"#	c #F6F6F6",
"$	c #FBFBFB",
"%	c #D7D7D7",
"&	c #919191",
"*	c #464646",
"=	c #020202",
"-	c #626262",
";	c #DEDEDE",
">	c #BEBEBE",
",	c #555555",
"'	c #C1C1C1",
")	c #2A2A2A",
"!	c #9A9A9A",
"~	c #070707",
"{	c #121212",
"]	c #171717",
"^	c #202020",
"/	c #080808",
"(	c #010101",
"_	c #676767",
":	c #FDFDFD",
"<	c #242424",
"[	c #FCFCFC",
"}	c #0B0B0B",
"|	c #D1D1D1",
"1	c #7C7C7C",
"2	c #F5F5F5",
"3	c #050505",
"4	c #040404",
"                                ",
"                                ",
"                                ",
"               .....            ",
"               .....            ",
"               .....            ",
"               ..+++++          ",
"     .....     ..+++++...       ",
"   ........    ..+++++....      ",
"  ..........   ..+++++.....     ",
" ....@#$++%&*  ..+++++=-;$>     ",
" ...,++++++++  ..+++++'+++++    ",
" ..)++++++++++ ..++++++++++++   ",
" ..!++++~{+++++..+++++]^+++++   ",
"   +++++..+++++..+++++..+++++   ",
"   +++++..+++++..+++++..+++++   ",
"  .+++++./+++++..+++++..+++++   ",
" ..(((  _:+++++..+++++..+++++   ",
" ....<[++++++++..+++++..+++++   ",
" ..}|++++>+++++..+++++..+++++   ",
" ..!++++1.+++++..+++++..+++++   ",
" ..2++++3.+++++..+++++..+++++   ",
" ..+++++..+++++..+++++..+++++   ",
"  .+++++..+++++..+++++..+++++   ",
"   $++++3=+++++..+++++44+++++   ",
"   ++++++++++++  ++++++++++++   ",
"    +++++++++++  +++++++++++    ",
"     +++  +++++  +++++  +++     ",
"                                ",
"                                ",
"                                ",
"                                "};
