/* XPM */
static char * TextMap_xpm[] = {
"32 32 39 1",
" 	c None",
".	c #C1C1C1",
"+	c #424242",
"@	c #FFFFFF",
"#	c #F1F1F4",
"$	c #37376C",
"%	c #36366B",
"&	c #585884",
"*	c #6D6D94",
"=	c #454576",
"-	c #5B5B86",
";	c #C4C4D4",
">	c #A6A6BD",
",	c #6D6D93",
"'	c #DEDEE7",
")	c #E6E6ED",
"!	c #3E3E71",
"~	c #F8F8FA",
"{	c #5F5F89",
"]	c #8B8BAA",
"^	c #FDFDFD",
"/	c #FEFEFE",
"(	c #52527F",
"_	c #E1E1E9",
":	c #545481",
"<	c #C3C3D2",
"[	c #575783",
"}	c #4F4F7D",
"|	c #B6B6C9",
"1	c #F4F4F7",
"2	c #EFEFF3",
"3	c #F7F7F9",
"4	c #3D3D70",
"5	c #E2E2EA",
"6	c #FCFCFD",
"7	c #F9F9FA",
"8	c #9E9EB7",
"9	c #E5E5EC",
"0	c #EBEBF0",
"                                ",
"                                ",
"                                ",
"                                ",
"    .......................+    ",
"    ......................++    ",
"    ..@@@@@@@@@@@@@@@@@@@@++    ",
"    ..@@@@@@@@@@@@@@@@@@@@++    ",
"    ..@@@@@@@@#$%%&*=%%-;@++    ",
"    ..@@@@@@@@>%,'@@)%!~@@++    ",
"    ..@@@@@@@@{]^@@@/%(@@@++    ",
"    ..@@@@@@@_,^@@@@@%:@@@++    ",
"    ..@<[%%}|12@@@@@@%:@@@++    ",
"    ..@@34%5@@@@@@@@@%:@@@++    ",
"    ..@@@(%6@@@@@@@@@%:@@@++    ",
"    ..@@@:%@@@@@@@@@@%:@@@++    ",
"    ..@@@:%@@@@@@@@@@%:@@@++    ",
"    ..@@@:%@@@@@@@@@@%:@@@++    ",
"    ..@@@:%@@@@@@@@@6%(@@@++    ",
"    ..@@@:%@@@@@@@@@5%43@@++    ",
"    ..@@@:%@@@@@@278}%%[@@++    ",
"    ..@@@:%@@@@@^,9@@@@@@@++    ",
"    ..@@@(%/@@@^]{@@@@@@@@++    ",
"    ..@@~!%)@@',%>@@@@@@@@++    ",
"    ..@;-%%=*&%%$0@@@@@@@@++    ",
"    ..@@@@@@@@@@@@@@@@@@@@++    ",
"    ..++++++++++++++++++++++    ",
"    .+++++++++++++++++++++++    ",
"                                ",
"                                ",
"                                ",
"                                "};
