/* XPM */
static char * Tester_xpm[]={
"32 32 4 1",
"b c #0000c0",
"a c #00ffff",
"# c #58a8ff",
". c #ffffff",
"...............................#",
".aaaaaaaaaaaaaaaaaaaaaaaaaaaaa##",
".aaaaaaaaaaaaaaaaaaaaaaaaaaaaa##",
".aaabaaaabbbaaaaabaaaabbbaaaaa##",
".aabbaaabaaabaaabbaaabaaabaaaa##",
".aaabaaabaaabaaaabaaabaaabaaaa##",
".aaabaaabaaabaaaabaaabaaabaaaa##",
".aaabaaabaaabaaaabaaabaaabaaaa##",
".aaabaaabaaabaaaabaaabaaabaaaa##",
".aaabaaabaaabaaaabaaabaaabaaaa##",
".aaabaaabaaabaaaabaaabaaabaaaa##",
".aaabaaabaaabaaaabaaabaaabaaaa##",
".aaabaaaabbbaaaaabaaaabbbaaaba##",
".aaaaaaaaaaaaaaaaaaaaaaaaaaaaa##",
".aaaaaaaaaaaaaaaaaaaaaaaaaaaaa##",
".aaaaaaaaaaaaaaaaaaaaaaaaaaaaa##",
".aaaaaaaaaaaaaaaaaaaaaaaaaaaaa##",
".aaabbbaaaaaaaaaaaaabbbbaaaaaa##",
".aabaaabaaaaaaaaaaaabaaabaaaaa##",
".aabaaabaaaaaaaaaaaabaaabaaaaa##",
".aabaaabaaaaaaaaaaaabaaabaaaaa##",
".aabaaabaaaabbaaaaaabaaabaaaaa##",
".aabbbbbaaabaabaaaaabbbbaaaaaa##",
".aabaaabaaabaabaaaaabaaabaaaaa##",
".aabaaabaaabaabaaaaabaaabaaaaa##",
".aabaaabaaabaababaaabaaabaaaaa##",
".aabaaabaaaabbabaaaabbbbaaabab##",
".aaaaaaaaaaaaaaaaaaaaaaaaaaaaa##",
".aaaaaaaaaaaaaaaaaaaaaaaaaaaaa##",
".aaaaaaaaaaaaaaaaaaaaaaaaaaaaa##",
".###############################",
"################################"};
